<svg xmlns="http://www.w3.org/2000/svg" width="334.61652" height="63.083733" viewBox="0 0 334.61651 63.083732"><path d="M295.464 831.154h47.291v47.29h-47.291z" style="fill:#0091d1;fill-opacity:1;fill-rule:nonzero;stroke:none" transform="matrix(1.33333 0 0 -1.33333 -393.951 1171.259)"/><path d="m295.463 878.444 11.818-11.827 11.827 11.827z" style="fill:#0091d1;fill-opacity:1;fill-rule:nonzero;stroke:none" transform="matrix(1.33333 0 0 -1.33333 -393.951 1171.259)"/><path d="M295.463 878.444v-23.645l11.818 11.818z" style="fill:#009cd8;fill-opacity:1;fill-rule:nonzero;stroke:none" transform="matrix(1.33333 0 0 -1.33333 -393.951 1171.259)"/><path d="m319.108 854.799-11.818 11.826-11.827-11.826z" style="fill:#0091d1;fill-opacity:1;fill-rule:nonzero;stroke:none" transform="matrix(1.33333 0 0 -1.33333 -393.951 1171.259)"/><path d="M319.108 854.799v23.645l-11.818-11.82z" style="fill:#0082c9;fill-opacity:1;fill-rule:nonzero;stroke:none" transform="matrix(1.33333 0 0 -1.33333 -393.951 1171.259)"/><path d="M319.108 878.444v-23.645l11.818 11.818z" style="fill:#0070bb;fill-opacity:1;fill-rule:nonzero;stroke:none" transform="matrix(1.33333 0 0 -1.33333 -393.951 1171.259)"/><path d="m342.753 854.799-11.818 11.826-11.827-11.826z" style="fill:#004c98;fill-opacity:1;fill-rule:nonzero;stroke:none" transform="matrix(1.33333 0 0 -1.33333 -393.951 1171.259)"/><path d="m295.463 854.798 11.818-11.826 11.827 11.826z" style="fill:#0082c9;fill-opacity:1;fill-rule:nonzero;stroke:none" transform="matrix(1.33333 0 0 -1.33333 -393.951 1171.259)"/><path d="M295.463 854.798v-23.645l11.818 11.82z" style="fill:#0070bb;fill-opacity:1;fill-rule:nonzero;stroke:none" transform="matrix(1.33333 0 0 -1.33333 -393.951 1171.259)"/><path d="M319.108 831.154 307.29 842.98l-11.827-11.826z" style="fill:#0060af;fill-opacity:1;fill-rule:nonzero;stroke:none" transform="matrix(1.33333 0 0 -1.33333 -393.951 1171.259)"/><path d="M319.108 831.154v23.645l-11.818-11.82z" style="fill:#00529c;fill-opacity:1;fill-rule:nonzero;stroke:none" transform="matrix(1.33333 0 0 -1.33333 -393.951 1171.259)"/><path d="m319.108 854.798 11.818-11.826 11.827 11.826z" style="fill:#1c378a;fill-opacity:1;fill-rule:nonzero;stroke:none" transform="matrix(1.33333 0 0 -1.33333 -393.951 1171.259)"/><path d="M319.108 854.798v-23.645l11.818 11.82z" style="fill:#004c98;fill-opacity:1;fill-rule:nonzero;stroke:none" transform="matrix(1.33333 0 0 -1.33333 -393.951 1171.259)"/><path d="m342.753 831.154-11.818 11.826-11.827-11.826z" style="fill:#1c378a;fill-opacity:1;fill-rule:nonzero;stroke:none" transform="matrix(1.33333 0 0 -1.33333 -393.951 1171.259)"/><path d="M342.753 831.154v23.645l-11.818-11.82z" style="fill:#1c378a;fill-opacity:1;fill-rule:nonzero;stroke:none" transform="matrix(1.33333 0 0 -1.33333 -393.951 1171.259)"/><path d="m319.108 878.444 11.818-11.827 11.827 11.827z" style="fill:#0060af;fill-opacity:1;fill-rule:nonzero;stroke:none" transform="matrix(1.33333 0 0 -1.33333 -393.951 1171.259)"/><path d="M342.753 854.799v23.645l-11.818-11.82z" style="fill:#00529c;fill-opacity:1;fill-rule:nonzero;stroke:none" transform="matrix(1.33333 0 0 -1.33333 -393.951 1171.259)"/><path d="m342.753 848.884-15.14 14.42-22.977-23.034 8.382-8.381 14.595 14.374 15.14-15.057z" style="fill:#fff;fill-opacity:1;fill-rule:nonzero;stroke:none" transform="matrix(1.33333 0 0 -1.33333 -393.951 1171.259)"/><path d="M546.426 876.181H539.63v-10.294h-3.272l.004 10.294h-6.798l-.001-23.897h6.795v9.42h3.272v-11.592h6.794zm-42.48-7.443h23.599v4.162h-8.383l.004 4.54h-6.798v-4.54h-10.04l1.508-4.162zM455.85 850.48h44.002v4.162h-45.51zm33.636 16.643c-.008 5.133-5.307 9.224-11.792 9.233-6.486-.009-11.786-4.1-11.793-9.233.007-5.13 5.307-9.223 11.793-9.232 6.485.01 11.784 4.101 11.792 9.232m-6.17 0c-.006-2.604-2.498-4.753-5.622-4.753-3.125 0-5.618 2.15-5.623 4.753.005 2.604 2.498 4.753 5.623 4.754 3.124 0 5.616-2.15 5.622-4.754m-53.366-16.645h19.39v4.161h-45.507l1.507-4.16h17.815v-3.803l-14.595-.002 1.508-4.16h26.453v-9.538h6.808l.002 13.698H429.95zm-16.733 7.302 29.828-.002v.156l-.002 18.1h-6.794v-5.977h-20.482l-.003 5.976h-6.792l-.001-13.819c.178-2.299 1.979-4.175 4.246-4.434m2.55 8.113h20.482v-3.944h-19.822c-.347.004-.478.145-.566.301a.847.847 0 0 0-.087.328zm-48.925-32.89h28.805v4.2H370.03c-.193.002-.274.097-.343.222-.064.123-.072.251-.075.251l.002 10.11-6.851-.002.002-10.76a4.271 4.271 0 0 1 4.077-4.02m28.795 13.793.003 29.238h-6.797v-11.028l-2.474 2.474s-.741.742-1.484 0l-3.333-3.334s-.744-.743 0-1.485l3.333-3.334s.743-.742 1.484 0l2.474 2.473v-15.004zm-23.49 23.766h9.68v4.161h-25.213l1.509-4.16h8.244c.007-.21-.07-3.02-.318-4.446-.751-4.282-3.614-7.295-6.304-9.24-2.69-1.946-5.351-2.87-5.351-2.87l1.715-3.458.118.025c8.52 1.786 12.158 7.388 13.03 8.967.872-1.579 4.509-7.18 13.03-8.967l.118-.025 1.716 3.458s-2.663.924-5.352 2.87c-2.69 1.945-5.552 4.958-6.302 9.24-.25 1.426-.327 4.235-.32 4.445m89.707-22.804v-10.83a4.171 4.171 0 0 1 3.983-3.926h28.898v4.152H469.02c-.162.004-.223.087-.284.227-.044.116-.055.25-.057.301v.001l-.005 10.075zm42.968 11.237c.009-4.597 4.756-8.258 10.559-8.267 5.804.01 10.548 3.67 10.557 8.267-.01 4.6-4.753 8.263-10.557 8.271-5.803-.008-10.55-3.67-10.56-8.27m5.55 0c.005 2.316 2.224 4.231 5.01 4.231 2.785 0 5.004-1.915 5.008-4.232-.004-2.315-2.223-4.23-5.008-4.23-2.786 0-5.005 1.915-5.01 4.23m9.075-18.21c.007-5.365 5.546-9.645 12.33-9.655 6.782.01 12.322 4.29 12.33 9.654-.008 5.363-5.548 9.642-12.33 9.653-6.784-.01-12.323-4.29-12.33-9.653m6.439 0c.007 2.73 2.618 4.98 5.89 4.98s5.885-2.25 5.892-4.98c-.007-2.73-2.62-4.98-5.891-4.98-3.273 0-5.884 2.25-5.891 4.98" style="fill:#021d49;fill-opacity:1;fill-rule:nonzero;stroke:none" transform="matrix(1.33333 0 0 -1.33333 -393.951 1171.259)"/></svg>