<svg xmlns="http://www.w3.org/2000/svg" xml:space="preserve" width="1152.2858" height="200" viewBox="0 0 1152.2858 200"><defs><linearGradient id="a" x1="0" x2="1" y1="0" y2="0" gradientTransform="matrix(55.5426 0 0 -55.5426 403.887 435.865)" gradientUnits="userSpaceOnUse" spreadMethod="pad"><stop offset="0" style="stop-opacity:1;stop-color:#007dc5"/><stop offset="0.100006" style="stop-opacity:1;stop-color:#007dc5"/><stop offset="0.20365136" style="stop-opacity:1;stop-color:#007dc5"/><stop offset="0.399994" style="stop-opacity:1;stop-color:#0095da"/><stop offset="0.75" style="stop-opacity:1;stop-color:#00b49c"/><stop offset="1" style="stop-opacity:1;stop-color:#72bf44"/></linearGradient></defs><path d="M161.436 438.43c-1.886-2.098-4.588-3.159-8.034-3.159h-5.436v23.364h5.436c6.857 0 10.789-4.266 10.789-11.707 0-3.555-.954-6.494-2.755-8.498m-7.816 25.022H142.5v-33.049h11.12c9.743 0 16.035 6.485 16.035 16.525s-6.292 16.524-16.035 16.524M189.942 442.734h7.262l-.014-.093c-.757-4.987-4.062-7.964-8.844-7.964-6 0-10.032 4.924-10.032 12.25 0 3.5.925 6.515 2.677 8.719 1.78 2.239 4.247 3.423 7.14 3.423 4.026 0 6.517-1.802 8.057-5.841h5.478c-1.385 6.843-6.315 10.768-13.535 10.768-8.885 0-15.34-7.18-15.34-17.068 0-9.888 6.543-17.068 15.555-17.068 8.266 0 14.038 6.173 14.038 15.013v2.514h-12.442zM219.297 435.111h-7.22v9.892h7.22c3.76 0 5.919-1.803 5.919-4.948 0-3.096-2.213-4.944-5.92-4.944m-7.22 23.634h6.19c4.02 0 5.977-1.495 5.977-4.57 0-3.104-2.012-4.679-5.976-4.679h-6.19zm13.146-11.35-.221.068.215.08c2.6.926 4.278 3.655 4.278 6.956 0 5.69-4.07 8.953-11.168 8.953h-11.553v-33.049h12.634c7.098 0 11.17 3.436 11.17 9.437 0 3.411-2.202 6.52-5.355 7.555M244.208 443.185c-1.133.012-2.006.244-2.598.834-.586.63-.63 1.486-.63 2.375v12.587h9.828v3.87h-14.393v-17.393c-.008-.13-.132-3.212 1.571-4.737 1.428-1.285 3.283-1.457 4.907-1.457 0 0 5.326-.143 9.773 1.057l-.475 3.73s-4.209-.91-7.983-.866M262.183 452.028h-3.161v12.877h-4.394v-35.95h4.394v19.105h3.16v-19.106h4.387v35.951h-4.386zM293.988 460.172c.534-.53.574-1.234.574-2.32 0-2.957-.559-6.96-1.157-9.388l4.3-.699c1.338 5.808 1.395 11.581 1.395 11.65-.016 1.212-.18 2.736-1.263 3.738-1.076.998-2.5 1.504-4.247 1.504h-18.639v-3.833h16.996c.688 0 1.468-.075 2.041-.652M270.997 441.689h13.453v-12.73h4.585v12.73h13.455v3.837h-31.493zM314.766 434.185c-.48.518-.52 1.221-.52 1.953v5.021h-4.66v-6.507c0-1.196.173-2.586 1.446-3.77.945-.884 2.402-1.325 4.33-1.325h17.798v3.895h-16.011c-1.078 0-1.971.274-2.383.733M305.249 443.614h31.469v3.87h-31.469zM315.178 459.448c.268.505.663.943 1.187 1.31.529.361 1.167.652 1.928.863.754.211 1.628.316 2.613.316.98 0 1.85-.105 2.61-.316.759-.21 1.399-.502 1.923-.863.527-.367.923-.805 1.188-1.31a3.454 3.454 0 0 0 .404-1.643c0-.607-.136-1.158-.404-1.663-.265-.506-.661-.94-1.188-1.31-.524-.366-1.164-.648-1.923-.855-.76-.202-1.63-.303-2.61-.303-.985 0-1.86.101-2.613.303-.761.207-1.4.49-1.928.855-.524.37-.92.804-1.187 1.31a3.478 3.478 0 0 0-.396 1.663c0 .59.128 1.138.396 1.643m-2.07-7.396c.903-.71 2.006-1.262 3.31-1.659 1.299-.39 2.795-.589 4.488-.589 1.683 0 3.182.198 4.486.59 1.304.396 2.407.947 3.304 1.658.903.713 1.589 1.555 2.046 2.532.458.976.686 2.051.686 3.218 0 1.141-.228 2.202-.686 3.18-.457.975-1.143 1.822-2.046 2.534-.897.708-2 1.272-3.304 1.676-1.304.404-2.803.606-4.486.606-1.693 0-3.19-.202-4.488-.606-1.304-.404-2.407-.968-3.31-1.676-.904-.712-1.584-1.559-2.04-2.535-.463-.977-.692-2.038-.692-3.179 0-1.167.229-2.242.692-3.218.456-.977 1.136-1.819 2.04-2.532M364.607 464.885v-7.374h-2.848v7.374h-4.269V445.85h4.27v7.824h2.847v-7.824h4.301v19.035zM355.54 462.408h-6.456v2.965h-4.56v-2.965h-6.396v-3.352h17.412zM363.315 434.285c-.266-.505-.663-.943-1.191-1.31-.524-.365-1.166-.652-1.923-.854-.758-.202-1.626-.303-2.614-.303-.981 0-1.851.101-2.613.303-.754.202-1.394.49-1.922.854-.525.367-.922.805-1.19 1.31a3.524 3.524 0 0 0-.4 1.665c0 .588.136 1.132.4 1.641.267.506.664.94 1.19 1.306.528.366 1.168.657 1.922.867.762.207 1.632.313 2.613.313.988 0 1.856-.106 2.614-.313.757-.21 1.399-.5 1.923-.867.528-.367.925-.8 1.19-1.306a3.469 3.469 0 0 0 .397-1.64c0-.609-.13-1.16-.397-1.666m2.068 7.371c-.9.711-2.004 1.271-3.305 1.675-1.3.41-2.8.611-4.489.611s-3.183-.202-4.49-.61c-1.299-.405-2.403-.965-3.305-1.676-.903-.708-1.583-1.555-2.04-2.532-.46-.977-.689-2.038-.689-3.179 0-1.17.228-2.24.69-3.213.456-.982 1.136-1.823 2.04-2.54.902-.707 2.006-1.259 3.305-1.654 1.307-.393 2.8-.59 4.49-.59 1.689 0 3.188.197 4.489.59 1.3.395 2.404.947 3.305 1.654.905.717 1.588 1.558 2.048 2.54.452.972.684 2.042.684 3.213a7.486 7.486 0 0 1-.684 3.18c-.46.976-1.143 1.823-2.048 2.531M348.288 448.945a4.978 4.978 0 0 0-1.509-.21c-.569 0-1.069.07-1.51.21a3.28 3.28 0 0 0-1.113.603 2.423 2.423 0 0 0-.682.913 2.85 2.85 0 0 0-.232 1.159c0 .412.078.795.232 1.149.154.354.381.657.682.914a3.44 3.44 0 0 0 1.113.602c.441.148.941.223 1.51.223.57 0 1.071-.075 1.51-.223.44-.148.81-.345 1.111-.602.305-.257.533-.56.684-.914.157-.354.234-.737.234-1.15 0-.421-.077-.808-.234-1.158a2.357 2.357 0 0 0-.684-.913c-.3-.262-.672-.46-1.112-.603m4.058-1.93a5.507 5.507 0 0 1 1.46 2.027c.321.779.483 1.643.483 2.573 0 .918-.162 1.76-.484 2.544a5.554 5.554 0 0 1-1.459 2.03c-.645.564-1.43 1.01-2.359 1.339-.929.324-1.998.484-3.202.484-1.205 0-2.27-.16-3.199-.484-.929-.33-1.717-.775-2.36-1.34a5.578 5.578 0 0 1-1.456-2.03 6.535 6.535 0 0 1-.49-2.543c0-.93.164-1.794.49-2.573a5.53 5.53 0 0 1 1.455-2.026c.644-.572 1.432-1.01 2.361-1.326.93-.316 1.994-.472 3.2-.472 1.203 0 2.272.156 3.201.472.93.316 1.714.754 2.36 1.326" style="fill:#004282;fill-opacity:1;fill-rule:nonzero;stroke:none" transform="matrix(3.61644 0 0 -3.61644 -515.343 1716.28)"/><path d="M421.987 474.577c-23.587 0-39.133-12.379-39.133-27.653 0-15.269 15.546-27.65 39.133-27.65 23.59 0 39.137 12.381 39.137 27.65 0 15.274-15.548 27.653-39.137 27.653" style="fill:#fff;fill-opacity:1;fill-rule:nonzero;stroke:none" transform="matrix(3.61644 0 0 -3.61644 -515.343 1716.28)"/><path d="M428.959 436.592c6.721 1.167 29.407 5.834 26.611 18.782-1.005 4.644-5.782 9.75-12.988 13.303-5.761 2.592-12.79 4.098-20.687 4.098-21.898 0-37.125-11.573-37.125-25.851 0-9.943 7.391-18.574 19.277-22.895 2.523 6.639 12.564 10.42 24.912 12.563" style="fill:#007dc5;fill-opacity:1;fill-rule:nonzero;stroke:none" transform="matrix(3.61644 0 0 -3.61644 -515.343 1716.28)"/><path d="M422.037 432.013c-9.823-1.233-14.326-4.404-17.222-8.256 5.004-1.714 10.761-2.678 17.08-2.678 21.899 0 37.128 11.571 37.128 25.845 0 1.267-.123 2.51-.354 3.727-.728-16.763-25.891-17.305-36.632-18.638" style="fill:url(#a);stroke:none" transform="matrix(3.61644 0 0 -3.61644 -515.343 1716.28)"/><path d="M396.927 458.572c.425.034 1.72.13 2.654.13 5.609 0 8.223-2.72 8.223-8.557 0-6.03-2.321-8.966-7.097-8.966-3.497 0-3.78.17-3.78 2.241zm3.837 1.851h-7.344l.085-.21c.328-.792.308-2.237.286-3.515-.008-.302-.012-16.955-.012-16.955l.146-.004c.033-.002 3.345-.12 6.484-.12 6.56 0 10.967 4.445 10.967 11.061 0 5.92-4.164 9.743-10.612 9.743M431.09 439.88c-.108 1.215-.155 2.04-.155 2.753v7.243h-3.49l.116-.224c.005-.003.353-.698.353-2.218 0-.051.014-5.033-.126-6.212-.843-.217-1.97-.295-2.7-.295-5.536 0-8.346 3.179-8.346 9.44 0 4.784 3.162 8.35 7.688 8.679 2.38.17 4.672-.478 6.117-1.732l.252-.22v2.927l-.121.023c-1.438.28-3.125.568-4.778.568-7.971 0-12.73-4.194-12.73-11.22 0-7.484 5.812-10.15 11.252-10.15 2.306 0 4.693.174 6.542.476l.139.024zM437.78 458.8h2.052c3.231 0 4.606-.978 4.606-3.269 0-2.605-1.693-3.819-5.33-3.819h-1.339zm-.01-8.709h1.62c3.744 0 5.638-1.47 5.638-4.368 0-3.057-1.633-4.544-4.994-4.544-1.629 0-2.265.59-2.265 2.098zm5.771 1.006c1.993.53 3.905 2.288 3.905 4.857 0 2.8-2.526 4.47-6.756 4.47h-6.282l.042-.187c.005-.008.185-.83.185-2.739v-17.932l.156.004c.021 0 2.468.05 5.496.05 5.282 0 8.308 2.292 8.308 6.288 0 2.473-2.046 4.545-5.054 5.19" style="fill:#fff;fill-opacity:1;fill-rule:nonzero;stroke:none" transform="matrix(3.61644 0 0 -3.61644 -515.343 1716.28)"/></svg>