<svg xmlns="http://www.w3.org/2000/svg" width="377.952" height="93.43" viewBox="0 0 99.999797 24.720022"><g fill="#FFF"><path d="M20.34 0h-6.022L4.807 11.07V0H0v24.153h4.807v-11.1l9.826 11.1h6.022L9.965 12.077ZM100 24.153 92.778 15.8l7.004-8.354h-5.184l-6.107 7.23V0h-4.807v24.153h4.807v-7.248l6.222 7.248zM31.332 20.353a4.57 4.57 0 0 1-4.569-4.444c0-.043-.003-.085-.003-.127a4.572 4.572 0 1 1 4.571 4.571m.844-13.496c-2.02 0-3.746.868-5.165 2.067V0h-4.807v15.909c0 4.788 3.168 8.797 9.129 8.797 5.358 0 9.128-3.7 9.128-8.888 0-4.91-3.243-8.961-8.285-8.961M74.445 6.857c-2.317 0-4.13.853-5.545 2.119V7.383h-4.807v16.779H68.9v-9.407a3.545 3.545 0 1 1 7.09 0v9.407h4.837v-10.75l.003-.194c0-3.531-2.926-6.361-6.385-6.361M52.067 20.329a4.571 4.571 0 1 1 0-9.143 4.571 4.571 0 0 1 0 9.143m-.1-13.459c-5.418 0-9.23 3.701-9.23 8.89 0 4.908 3.28 8.96 8.377 8.96 2.293 0 4.49-1.223 5.736-2.88v2.322h4.346v-8.399h-.038l.038-.095c0-4.788-3.203-8.798-9.23-8.798"/></g></svg>