<svg xmlns="http://www.w3.org/2000/svg" width="1097.8854mm" height="300mm" viewBox="0 0 1097.8854 300"><path d="M0 0h-2.4v-14.956H0v9.563h2.225v1.338H0Z" style="fill:#231f20;fill-opacity:1;fill-rule:nonzero;stroke:none" transform="matrix(13.22921 0 0 -13.22921 510.398 74.107)"/><path d="M0 0h-2.397v-1.397h-3.268v-1.34h2.235c-1.208-.889-2.015-2.472-2.015-4.284 0-2.785 1.9-5.042 4.247-5.042 2.344 0 4.249 2.257 4.249 5.042 0 1.812-.808 3.395-2.017 4.284h2.242v1.34H0Zm-1.18-10.724c-1.031-.003-1.873 1.652-1.876 3.696-.003 2.043.832 3.698 1.867 3.702C-.155-3.325.686-4.98.687-7.021c0-2.041-.831-3.703-1.867-3.703" style="fill:#231f20;fill-opacity:1;fill-rule:nonzero;stroke:none" transform="matrix(13.22921 0 0 -13.22921 418.62 69.366)"/><path d="M0 0h-2.222v4.055h-2.4V-4.99c-.395-.388-1.003-.798-1.832-.784h-3.815c-.567 0-1.021.454-1.021 1.011l.004 8.14h-2.382l.01-8.14c0-1.302 1.067-2.36 2.384-2.36l4.13-.001s1.458-.072 2.522.9v-4.677h2.4v9.565H0Z" style="fill:#231f20;fill-opacity:1;fill-rule:nonzero;stroke:none" transform="matrix(13.22921 0 0 -13.22921 734.972 127.746)"/><path d="M0 0c0 2.393-1.902 4.333-4.246 4.333-2.347 0-4.248-1.94-4.248-4.333 0-1.498.746-2.818 1.881-3.596h-4.403v-1.398h1.839l.007-3.596a2.373 2.373 0 0 1 2.385-2.363l8.088-.004v1.352h-7.085c-.559 0-1.017.453-1.017 1.015l.004 3.596h9.208v1.398h-4.294A4.353 4.353 0 0 1 0 0m-4.18 2.981c1.038.005 1.883-1.325 1.891-2.977.012-1.648-.818-2.992-1.852-2.998C-5.174-3-6.021-1.667-6.029-.019c-.014 1.651.819 2.996 1.849 3" style="fill:#231f20;fill-opacity:1;fill-rule:nonzero;stroke:none" transform="matrix(13.22921 0 0 -13.22921 878.672 126.83)"/><path d="M0 0c0 1.234-.538 2.332-1.37 3.022H.133v1.34h-2.369V5.76h-2.399V4.362h-2.386v-1.34h1.513c-.833-.69-1.37-1.788-1.37-3.022 0-2.098 1.539-3.794 3.437-3.794C-1.537-3.794 0-2.098 0 0m-3.428-2.445c-.588-.006-1.07 1.086-1.08 2.435-.01 1.351.459 2.446 1.049 2.448.588.006 1.074-1.086 1.084-2.435.004-1.349-.467-2.444-1.053-2.448" style="fill:#231f20;fill-opacity:1;fill-rule:nonzero;stroke:none" transform="matrix(13.22921 0 0 -13.22921 1009.13 145.562)"/><path d="M0 0v10.972h-2.267V7.985l-1.095.005v2.993h-2.283v-7.02A4.325 4.325 0 0 1-8.488-.123c0-2.394 1.899-4.33 4.249-4.33 2.343 0 4.245 1.936 4.245 4.33C.006-.082 0-.041 0 0m-2.267 6.649V3.711c-.34.183-.708.322-1.095.403v2.539zm-1.93-9.711C-5.234-3.065-6.074-1.73-6.078-.083c-.006 1.651.828 2.992 1.859 2.994 1.033.005 1.879-1.33 1.883-2.981.004-1.65-.83-2.992-1.861-2.992" style="fill:#231f20;fill-opacity:1;fill-rule:nonzero;stroke:none" transform="matrix(13.22921 0 0 -13.22921 1097.806 219.41)"/><path d="M0 0a4.108 4.108 0 0 1-.291.991c-.438.946-1.047 1.739-1.963 2.273a4.41 4.41 0 0 1-4.547-.029 3.994 3.994 0 0 1-1.498-1.603 4.694 4.694 0 0 1-.283-.703c-.371-1.178-.357-2.763.311-3.838.218-.352.533-.651.918-.801.386-.148.843-.133 1.19.093.448.288.527.841.444 1.331-.105.625-.185 1.242.044 1.855.075.196.179.384.329.53.092.087.2.16.315.214.242.119.519.172.785.128.467-.076.847-.436 1.055-.861.206-.423.262-.903.285-1.374.097-2.053-.393-4.18-.916-6.151a38.72 38.72 0 0 0-.167-.608c-.046-.156-.124-.354-.026-.507a.396.396 0 0 1 .183-.139c.305-.123.553.063.757.269C-1.871-7.719-1.1-6.157-.572-4.551c.197.599.366 1.211.48 1.832C.063-1.868.152-.896 0 0" style="fill:#009591;fill-opacity:1;fill-rule:nonzero;stroke:none" transform="matrix(13.22921 0 0 -13.22921 215.958 177.783)"/><path d="M0 0c0 .308-.272.511-.566.502C-.863.49-1.139.339-1.412.233c-5.295-2.012-11.266-2.393-16.846-1.59-.955.138-1.922.33-2.882.48-.599.094-1.194.23-1.799.275-.516.04-1.16.058-1.577-.3-.55-.476-.511-1.377-.199-1.973.375-.714 1.031-1.249 1.714-1.657.663-.395 1.455-.817 2.246-.767 2.132.136 4.259.342 6.379.617 3.614.47 7.404.913 10.799 2.315 1.11.459 2.205 1.03 3.156 1.769C-.248-.467 0-.25 0 0" style="fill:#009591;fill-opacity:1;fill-rule:nonzero;stroke:none" transform="matrix(13.22921 0 0 -13.22921 329.957 52.247)"/><path d="M0 0a2.084 2.084 0 0 1 4.166 0c0 .171-.039.343-.113.498-.178.379-.379.564-.358 1.016.026.613-.758.621-1.181.621-.46 0-.95-.064-1.365-.273a2.114 2.114 0 0 1-.817-.736A2.073 2.073 0 0 1 .001.048L0 0" style="fill:#ed1651;fill-opacity:1;fill-rule:nonzero;stroke:none" transform="matrix(13.22921 0 0 -13.22921 129.063 28.244)"/></svg>