<svg xmlns="http://www.w3.org/2000/svg" xml:space="preserve" width="1000px" height="221px" x="0px" y="0px" viewBox="0 0 1000 221"><g fill="#0055A1"><path d="M276.64 29.377c-3.757-.674-10.067-4.973-12.121-8.609-1.613 3.802-8.035 8.733-12.307 9.875l-3.378-4.309c11.145-4.003 12.784-10.206 12.784-12.209h-9.612v-4.65h24.845v4.65h-9.662c0 2.003 3.639 8.6 12.102 10.744l-2.651 4.508zm-19.382 21.522V33.411h31.602v17.488h-31.602zm.181-45.283V.966h14.337v4.65h-14.337zm26.233 32.619h-21.21v7.874h21.21v-7.874zm5.187-20.155v12.753h-5.188V.965h5.188v12.061h6.592v5.053h-6.592zM316.076 51.325h-6.732v-7.253h6.732v7.253zm-6.188-27.835V1.479h5.672V23.49l-1.601 14.956h-2.45l-1.621-14.956zM357.332 25.773v-4.475h20.04v-5.215h5.378v5.215h20.046v4.475h-45.464zm42.458-10.615-2.781 4.003c-7.365-.667-14.004-4.412-16.958-7.919-2.79 4.026-10.179 7.17-16.988 8.109l-2.793-4.042c4.255-.519 14.436-3.335 16.793-7.975h-14.357V2.678h34.738v4.656h-14.403c2.446 4.542 11.794 7.456 16.749 7.824zm-38.901 23.424v-4.147h38.276v4.147h-38.276zm19.278 13.788c-8.792 0-16.971-1.559-16.971-6.234 0-4.565 8.446-6.182 16.971-6.182 8.304 0 16.893 1.532 16.893 6.182 0 4.724-9.112 6.234-16.893 6.234zm-10.979-20.111v-4.057h21.508v4.057h-21.508zm10.979 11.753c-4.816 0-10.651.06-10.651 2.196 0 2.024 5.835 2.063 10.651 2.063 4.35 0 10.586-.04 10.586-2.063.001-2.136-6.076-2.196-10.586-2.196zM408.589 31.577v-4.904h45.478v4.904h-45.478zm22.703-9.124c-11.124 0-17.31-4.493-17.31-10.789 0-6.226 6.147-11.033 17.31-11.033 11.277 0 17.3 4.753 17.3 11.033 0 6.295-5.977 10.789-17.3 10.789zm-16.833 27.911V36h5.144v9.521h29.967v4.842h-35.111zM431.34 5.105c-7.123 0-11.823 2.746-11.823 6.486 0 3.788 4.954 6.256 11.775 6.256 6.973 0 11.914-2.351 11.914-6.145 0-3.798-4.751-6.597-11.866-6.597zM477.976 31.577v-4.904h45.464v4.904h-45.464zm22.678-9.124c-11.112 0-17.31-4.493-17.31-10.789 0-6.226 6.149-11.033 17.31-11.033 11.29 0 17.306 4.753 17.306 11.033 0 6.295-5.992 10.789-17.306 10.789zm-16.851 27.911V36h5.161v9.521h29.994v4.842h-35.155zm16.909-45.259c-7.129 0-11.835 2.746-11.835 6.486 0 3.788 4.983 6.256 11.777 6.256 6.981 0 11.926-2.351 11.926-6.145 0-3.798-4.73-6.597-11.868-6.597zM528.273 13.287V8.891h23.1v4.396h-23.1zm11.472 18.422c-6.27 0-10.388-3.356-10.388-8.124 0-4.712 4.118-7.879 10.429-7.879 6.397 0 10.417 3.167 10.417 7.943 0 4.705-4.053 8.06-10.458 8.06zm-6.001-25.81v-4.42h11.988v4.42h-11.988zm18.25 46.568c-11.385 0-17.629-4.08-17.629-9.528 0-5.451 6.364-9.166 17.72-9.166 11.43 0 17.575 3.877 17.575 9.348 0 5.454-6.22 9.346-17.666 9.346zM539.786 19.92c-3.568 0-5.33 1.433-5.33 3.729 0 2.376 1.762 3.865 5.33 3.865 3.66 0 5.347-1.489 5.347-3.865 0-2.296-1.687-3.729-5.347-3.729zm12.233 18.245c-7.112 0-12.025 1.619-12.025 4.838 0 3.132 4.858 4.942 12.025 4.942 6.98 0 11.807-1.81 11.807-4.888-.001-3.273-4.707-4.892-11.807-4.892zm12.835-5.598V18.815h-5.339v12.646h-4.846V1.815h4.846v11.773h5.339V.965h4.843v31.602h-4.843z"/></g><path fill="#FFF" d="M51.34 21.549a23.453 23.453 0 0 0-11.854 13.653L1.718 148.762C-.283 154.708.184 161.156 3.009 166.8a23.598 23.598 0 0 0 13.642 11.811l123.88 41.597c6.048 1.985 12.426 1.556 18.065-1.286 5.666-2.853 9.871-7.675 11.846-13.663l37.805-113.541c4.123-12.342-2.622-25.761-14.979-29.882L69.378 20.228c-6.023-1.967-12.404-1.53-18.038 1.321"/><path fill="#0098D9" d="M111.891 130.6c-6.737 7.534-15.144 13.567-24.834 17.322l-5.635 2.171V97.479l5.545 2.142c9.741 3.72 18.15 9.78 24.924 17.256 4.805-7.762 7.807-16.739 8.403-26.49 1.532-25.259-14.277-48.379-35.973-56.425L66.442 27.97c-8.084-2.682-16.657 1.789-19.345 9.828L9.192 151.425c-2.661 8.072 1.849 16.847 9.941 19.515l85.983 28.716c8.794-9.325 14.465-21.674 15.28-35.465.769-12.283-2.43-23.861-8.505-33.591m-49.745 22.735h-8.517V94.353h8.517v58.982z"/><path fill="#E63C2F" d="M106.918 123.727c-4.789-5.641-10.583-10.339-17.3-13.79v27.717c6.718-3.477 12.534-8.254 17.3-13.927"/><path fill="#004B9D" d="M190.528 69.428 111.61 43.057c10.605 11.596 17.102 26.991 17.102 43.892.037 13.326-4.123 26.125-11.38 36.778 7.274 10.648 11.492 23.431 11.492 36.779.029 15.945-5.688 30.618-15.243 41.965l29.648 9.9c8.097 2.688 16.651-1.737 19.312-9.825l37.927-113.591c2.677-8.083-1.851-16.837-9.94-19.527m-20.916 83.713-10.64.037-21.921-29.509 22.252-29.481 10.766-.04-22.331 29.578 21.874 29.415z"/><path fill="#0055A1" d="M257.258 75.655h20.805v124.186h-20.805zM306.828 75.641v124.15h37.848c32.146-.05 47.348-11.396 47.389-34.1-.01-14.242-8.088-25.026-21.41-29.046l-1.214-.368 1.176-.492c12.387-5.211 18.334-14.192 18.363-27.667-.029-21.223-14.5-32.417-43.812-32.477h-38.34zm34.256 69.266c14.833.033 29.115 2.365 29.148 19.229.008 6.087-2.091 10.979-6.61 13.845-4.524 2.824-11.331 4.103-20.853 4.103h-15.133v-37.177h13.448m6.826-51.556c5.985.017 20.231 2.053 20.271 16.487.015 7.921-3.176 12.408-8.432 14.749-5.198 2.295-12.371 2.617-20.385 2.617h-11.728V93.351h20.274M508.635 75.641c-6.575 6.854-55.874 58.886-55.874 58.886s53.497 58.002 60.254 65.264h-29.001c-2.722-3.102-48.551-55.938-48.551-55.938v55.988h-20.811V75.655h20.811v50.229s43.745-47.458 46.347-50.244h26.825zM743.231 146.942v12.729h-50.517v-12.704H676.21v52.659h83.793v-52.684h-16.772zm0 39.798h-50.509v-15.077h50.509v15.077zm-32.822-55.433c6.059-4.603 10.049-10.876 11.575-18.134h21.334v26.979h16.619V75.618h-16.619v25.563h-21.173c-1.179-7.689-4.938-14.038-11.182-18.888-6.349-4.89-13.8-7.392-22.29-7.392-9.143 0-17.165 3.019-24.104 8.961-6.905 5.988-10.429 13.601-10.429 22.724 0 9.069 3.523 16.666 10.429 22.674 6.939 6.063 14.962 9.048 24.104 9.048 8.276 0 15.554-2.332 21.736-7.001zm-34.468-10.665c-3.346-3.813-4.975-8.418-4.975-13.926 0-5.519 1.688-10.111 5.086-13.748 3.383-3.653 7.539-5.473 12.621-5.473 5.405 0 9.553 1.82 12.7 5.448 3.139 3.662 4.677 8.238 4.677 13.773 0 5.515-1.571 10.113-4.805 13.95-3.288 3.801-7.485 5.657-12.895 5.657-4.932 0-9.026-1.856-12.409-5.681zm-54.23-44.941v124.14h16.624V75.701h-16.624zM538.12 90.938h43.466l.029 7.156-.029 2.31c-.607 29.906-21.545 54.826-49.641 61.438l-.694.161 8.478 10.479.306-.082c31.941-9.354 58.358-39.071 58.358-71.769V78.889H538.12v12.049zM809.28 159.286h-16.772v40.1h83.752v-11.98h-66.98zM859.971 80.122c-7.729-5.271-16.954-7.95-27.776-7.95-10.813 0-20.114 2.68-27.806 7.95-7.767 5.308-11.69 12.768-11.674 22.242-.017 9.333 3.924 16.731 11.674 21.983 7.691 5.256 16.992 7.891 27.806 7.891 10.822 0 20.048-2.635 27.776-7.891 7.787-5.252 11.683-12.65 11.683-21.983-.001-9.475-3.896-16.935-11.683-22.242zm-11.616 35.251c-4.21 3.44-9.557 5.111-16.161 5.111-6.529 0-11.831-1.671-16.028-5.111-4.168-3.418-6.27-7.669-6.27-13.01 0-5.306 2.102-9.708 6.27-13.326 4.197-3.628 9.499-5.477 16.028-5.477 6.604 0 11.927 1.849 16.132 5.477 4.227 3.619 6.248 8.021 6.248 13.326 0 5.341-2.021 9.592-6.219 13.01zM776.633 138.477h110.523v12.985H776.633zM985.982 159.72c-7.447-4.42-16.293-6.591-26.66-6.591-10.417 0-19.3 2.171-26.682 6.591-7.406 4.334-11.103 10.422-11.103 18.2 0 7.671 3.696 13.68 11.103 18.051 7.382 4.301 16.265 6.45 26.682 6.45 10.367 0 19.213-2.149 26.66-6.45 7.345-4.371 11.017-10.38 11.017-18.051 0-7.778-3.672-13.866-11.017-18.2zm-11.016 27.757c-4.069 2.522-9.283 3.783-15.656 3.783-6.273 0-11.476-1.261-15.562-3.783-4.035-2.515-6.087-5.683-6.087-9.557 0-3.941 2.052-7.191 6.087-9.838 4.086-2.688 9.288-4.028 15.562-4.028 6.373 0 11.587 1.34 15.656 4.028 4.065 2.646 6.1 5.896 6.1 9.838-.001 3.874-2.035 7.042-6.1 9.557zM902.557 77.357h37.569v11.139h-37.569zM984.576 75.792v28.635h-9.366V75.792h-15.888v70.141h15.888v-30.345h9.366v35.167h15.917V75.792zM953.641 92.538h-57.709v11.06h12.142c-7.051 4.549-11.641 11.726-11.641 19.963 0 13.755 12.749 24.879 28.422 24.879 15.764 0 28.509-11.124 28.509-24.879 0-8.237-4.603-15.414-11.657-19.963h11.935v-11.06zm-28.787 45.881c-7.432 0-13.511-6.679-13.511-14.858 0-8.204 6.079-14.858 13.511-14.858 7.493 0 13.547 6.654 13.547 14.858 0 8.179-6.053 14.858-13.547 14.858z"/></svg>